<svg id="Laag_1" data-name="Laag 1" xmlns="http://www.w3.org/2000/svg" viewBox="0 0 740.21 182.14"><defs><style>.cls-1{fill:#533f3b;}.cls-2{fill:#518167;}</style></defs><title>logo</title><path class="cls-1" d="M48.44,0,41.76,31.13H94.59L81.44,93.2h37l13.15-62.07h52.6L190.84,0Z"/><polygon class="cls-1" points="88.27 126.89 77.91 175.79 40.94 175.79 51.3 126.89 88.27 126.89"/><path class="cls-1" d="M286.72,62.25q-12-20.62-45.56-20.63T186.78,62.25a96.21,96.21,0,0,0-21.24,31H201.2a47.49,47.49,0,0,1,8.48-12.28,33.71,33.71,0,0,1,25.16-10.56q14.91,0,20.69,10.56a29.19,29.19,0,0,1,3.26,12.28A65.36,65.36,0,0,1,257.14,111a79.64,79.64,0,0,1-5,15.86h35.93A98.41,98.41,0,0,0,292.8,111a85.9,85.9,0,0,0,2-17.83A60.24,60.24,0,0,0,286.72,62.25Z"/><path class="cls-1" d="M265.05,126.89A94.22,94.22,0,0,1,242.91,160q-20.82,20.32-54.32,20.33T143,160q-8.61-14.46-8-33.1h35.56a31,31,0,0,0,3.35,14.31q5.77,10.62,20.69,10.62a33.62,33.62,0,0,0,25.16-10.62,49,49,0,0,0,9.41-14.31Z"/><path class="cls-1" d="M424.47.24l-13.12,62a30.66,30.66,0,0,0-11.87-14.37q-8.06-5.19-19.86-5.19-25.64,0-45,19.09Q321.79,74.4,314.33,93.2a132.33,132.33,0,0,0-6.26,20.93,97.27,97.27,0,0,0-1.86,12.76H342a69.11,69.11,0,0,1,1.69-15.26,70.28,70.28,0,0,1,6.55-18.43,56.31,56.31,0,0,1,6.39-9.54,30.09,30.09,0,0,1,24.27-11.27q9.76,0,15.86,6.2Q402,84,403,93.2h36.23l19.7-93Z"/><path class="cls-1" d="M408.08,126.89l-10.36,48.9h-33l3.81-18q-9.78,11.57-20.21,16.81T324,179.84q-22.78,0-34.41-18.42-8.94-14.17-7.4-34.53H318a34.17,34.17,0,0,0,2.64,13.54q4.77,10.78,19.2,10.79a31.64,31.64,0,0,0,24.27-10.73,51.36,51.36,0,0,0,8.87-13.6Z"/><path class="cls-1" d="M585.11,62.25q-12-20.62-45.56-20.63T485.17,62.25a96.08,96.08,0,0,0-21.25,31h35.67a47.49,47.49,0,0,1,8.48-12.28,33.69,33.69,0,0,1,25.16-10.56q14.91,0,20.69,10.56a29.19,29.19,0,0,1,3.26,12.28A65.79,65.79,0,0,1,555.53,111a79.64,79.64,0,0,1-5,15.86h35.92A98.44,98.44,0,0,0,591.19,111a85.4,85.4,0,0,0,2-17.64V93.2A60.23,60.23,0,0,0,585.11,62.25Z"/><path class="cls-1" d="M561.43,127a94.06,94.06,0,0,1-22.13,33.1Q518.48,180.47,485,180.47t-45.61-20.33q-8.61-14.46-8-33.1H466.9a31,31,0,0,0,3.35,14.31Q476,152,490.94,152a33.62,33.62,0,0,0,25.16-10.62A49,49,0,0,0,525.51,127Z"/><polygon class="cls-1" points="118.41 93.2 111.27 126.89 74.3 126.89 81.44 93.2 118.41 93.2"/><polygon class="cls-2" points="81.44 93.2 74.3 126.89 0 126.89 8 93.2 81.44 93.2"/><path class="cls-1" d="M195.25,111a69.51,69.51,0,0,0-1.74,15.86H158A89.24,89.24,0,0,1,160,111a96.84,96.84,0,0,1,5.59-17.83H201.2A76.42,76.42,0,0,0,195.25,111Z"/><path class="cls-2" d="M118.41,93.2h47.13A96.84,96.84,0,0,0,160,111a89.24,89.24,0,0,0-2,15.86H111.27Z"/><path class="cls-1" d="M439.23,93.2l-7.15,33.69H397a67.8,67.8,0,0,0,4.55-14.19q2.37-11.26,1.43-19.5Z"/><path class="cls-2" d="M401.57,112.7A67.8,67.8,0,0,1,397,126.89H193.51A69.51,69.51,0,0,1,195.25,111,76.42,76.42,0,0,1,201.2,93.2H403Q403.95,101.44,401.57,112.7Z"/><path class="cls-1" d="M493.64,111a69.51,69.51,0,0,0-1.74,15.86H456.34a90.25,90.25,0,0,1,2-15.86,96.84,96.84,0,0,1,5.59-17.83h35.67A76.42,76.42,0,0,0,493.64,111Z"/><path class="cls-2" d="M439.23,93.2h24.69A96.84,96.84,0,0,0,458.33,111a90.25,90.25,0,0,0-2,15.86H432.08Z"/><path class="cls-2" d="M621.26,121.48,619,126.89H491.9A69.51,69.51,0,0,1,493.64,111a76.42,76.42,0,0,1,5.95-17.83h93.57v.19Z"/><polygon class="cls-2" points="740.21 76.19 634.27 182.14 579.02 126.89 592.97 93.2 593.16 93.39 621.26 121.48 634.27 134.49 716.39 52.37 740.21 76.19"/></svg>